HIERARCHY
ROOT Hips
{
  OFFSET 0 89.5177 0.535
  CHANNELS 6 Xposition Yposition Zposition Zrotation Xrotation Yrotation
  JOINT Spine
  {
    OFFSET 12.0259 -0.162855 1.69034e-005
    CHANNELS 3 Zrotation Xrotation Yrotation
    JOINT Spine1
    {
      OFFSET 15.3169 -0.0121922 0
      CHANNELS 3 Zrotation Xrotation Yrotation
      JOINT Spine2
      {
        OFFSET 15.3176 -0.0121908 0
        CHANNELS 3 Zrotation Xrotation Yrotation
        JOINT Neck
        {
          OFFSET 19.9142 1.56338 0
          CHANNELS 3 Zrotation Xrotation Yrotation
          JOINT Head
          {
            OFFSET 6.92651 0 0
            CHANNELS 3 Zrotation Xrotation Yrotation
            End Site
            {
              OFFSET 20.7666 0 0
            }
          }
          JOINT LeftShoulder
          {
            OFFSET -6.20654 0.708824 7.28219
            CHANNELS 3 Zrotation Xrotation Yrotation
            JOINT LeftArm
            {
              OFFSET 14.108 0 -1.52588e-005
              CHANNELS 3 Zrotation Xrotation Yrotation
              JOINT LeftForeArm
              {
                OFFSET 28.5802 0 0
                CHANNELS 3 Zrotation Xrotation Yrotation
                JOINT LeftHand
                {
                  OFFSET 27.092 0 0
                  CHANNELS 3 Zrotation Xrotation Yrotation
                  End Site
                  {
                    OFFSET 9.55928 -0.186424 0.145352
                  }
                }
              }
            }
          }
          JOINT RightShoulder
          {
            OFFSET -6.20654 0.708866 -7.28218
            CHANNELS 3 Zrotation Xrotation Yrotation
            JOINT RightArm
            {
              OFFSET 14.108 0 1.52588e-005
              CHANNELS 3 Zrotation Xrotation Yrotation
              JOINT RightForeArm
              {
                OFFSET 28.5802 0 0
                CHANNELS 3 Zrotation Xrotation Yrotation
                JOINT RightHand
                {
                  OFFSET 27.092 0 0
                  CHANNELS 3 Zrotation Xrotation Yrotation
                  End Site
                  {
                    OFFSET 9.55929 -0.186417 -0.145354
                  }
                }
              }
            }
          }
        }
      }
    }
  }
  JOINT LeftUpLeg
  {
    OFFSET 0.005 -0.535 8.837
    CHANNELS 3 Zrotation Xrotation Yrotation
    JOINT LeftLeg
    {
      OFFSET 39.9035 0 0
      CHANNELS 3 Zrotation Xrotation Yrotation
      JOINT LeftFoot
      {
        OFFSET 39.6689 0 0
        CHANNELS 3 Zrotation Xrotation Yrotation
        JOINT LeftToe
        {
          OFFSET 10.1624 13.6296 0
          CHANNELS 3 Zrotation Xrotation Yrotation
          End Site
          {
            OFFSET 8.38147 0 0
          }
        }
      }
    }
  }
  JOINT RightUpLeg
  {
    OFFSET 0.005 -0.535 -8.837
    CHANNELS 3 Zrotation Xrotation Yrotation
    JOINT RightLeg
    {
      OFFSET 39.9035 0 0
      CHANNELS 3 Zrotation Xrotation Yrotation
      JOINT RightFoot
      {
        OFFSET 39.6689 0 0
        CHANNELS 3 Zrotation Xrotation Yrotation
        JOINT RightToe
        {
          OFFSET 10.1624 13.6296 0
          CHANNELS 3 Zrotation Xrotation Yrotation
          End Site
          {
            OFFSET 8.38147 0 0
          }
        }
      }
    }
  }
}
MOTION
Frames:	6
Frame Time:	0.0333333
96.0052 90.7638 71.5748 174.944 -61.5312 77.8858 4.33823 0.971941 2.03628 8.64132 2.09502 3.99429 8.64132 2.09502 3.99428 -8.31066e-012 -9.0191e-006 -5.27751e-005 -2.855 -34.0023 22.079 178.287 5.116 -71.463 -26.1181 -11.3059 54.2698 -50.3347 3.18055e-015 -0 -54.3986 -38.7137 -60.2942 177.248 -11.2736 76.1866 24.1879 43.8014 -80.3312 -17.657 -3.18055e-015 -1.39149e-015 -41.5616 55.9808 55.4924 -43.27 5.04694 -163.635 -13.916 -4.77083e-015 -7.95139e-016 1.61602 13.2168 -14.4778 90 1.69904e-015 1.98785e-016 -44.347 -24.0229 162.972 -17.2152 3.18056e-015 3.18056e-015 2.2545 -0.95359 0.688689 90 -9.93923e-016 -6.36111e-015 
97.5691 90.552 71.2053 177.049 -63.1096 82.0918 4.38562 0.693182 1.90059 8.74699 1.52977 3.74321 8.74699 1.52977 3.7432 -8.3043e-012 -9.0191e-006 -5.27751e-005 -3.81941 -36.9822 21.9789 177.997 5.96936 -71.4141 -23.3051 -11.6807 56.341 -50.4504 3.18055e-015 -0 -55.7068 -40.4039 -62.3348 177.677 -10.3282 77.248 23.0948 41.3182 -83.9404 -19.4199 -3.18055e-015 3.97569e-016 -37.0915 57.873 50.937 -40.1227 6.69668 -163.91 -11.6058 -1.59028e-015 4.17448e-015 -0.182978 12.3166 -13.4198 90 -1.00635e-015 1.98785e-016 -46.5735 -30.2996 161.822 -17.6957 3.18056e-015 1.19271e-015 -0.211657 4.09846 -4.76988 90 -3.97569e-015 3.18055e-015 
99.5069 90.2034 70.5735 178.959 -64.8843 86.1876 4.40032 0.340813 1.73739 8.78861 0.814237 3.44376 8.78861 0.814236 3.44375 -8.30112e-012 -9.0191e-006 -5.27751e-005 -4.4082 -39.043 22.1229 177.945 6.06262 -71.2362 -22.8917 -11.1319 57.7821 -49.7623 0 3.18055e-015 -53.6841 -41.4178 -60.026 177.925 -8.57982 76.348 9.48326 37.5319 -78.7654 -22.1893 1.59028e-015 -1.19271e-015 -27.5307 63.1071 41.8635 -36.6481 7.89468 -164.26 -9.5995 1.59028e-015 1.68967e-015 -2.23268 11.3461 -12.3091 90 8.69683e-017 1.98785e-016 -48.8615 -35.8563 160.018 -21.1711 6.36111e-015 3.97569e-015 -1.79298 6.42285 -7.23137 90 1.59028e-015 -9.54166e-015 
101.958 89.6795 69.7432 -178.138 -66.7825 91.1595 4.32347 0.159476 1.64094 8.64068 0.442608 3.26534 8.64068 0.442607 3.26533 -8.30112e-012 -9.0191e-006 -5.27751e-005 -5.53795 -40.6638 21.0055 177.709 6.72489 -71.1351 -23.048 -7.30766 58.5806 -51.8403 6.36111e-015 4.77083e-015 -68.8112 -33.9902 -80.9551 178.263 -7.40227 76.757 -0.237773 33.4096 -77.7909 -24.3899 7.95139e-016 1.98785e-016 -34.5126 62.0546 50.1882 -33.2489 9.06103 -164.117 -8.2359 -4.77083e-015 -2.5842e-015 -4.21448 10.631 -11.5072 90 -3.35449e-016 -3.97569e-016 -49.1631 -38.275 159.45 -26.762 6.36111e-015 1.59028e-015 -1.38247 6.37098 -7.07736 90 3.18055e-015 6.36111e-015 
104.871 89.1721 68.8945 -173.507 -68.4601 97.2425 4.19922 0.277492 1.5974 8.38928 0.671573 3.1704 8.38928 0.671572 3.17039 -8.30112e-012 -9.0191e-006 -5.27751e-005 -7.6492 -42.1207 19.1924 177.387 7.80848 -71.4326 -12.9279 -7.26387 61.203 -57.4646 0 -1.59028e-015 -65.9949 -35.5607 -75.4 178.193 -7.77008 76.8673 -0.816477 29.734 -79.9997 -28.5055 7.95139e-016 1.59028e-015 -41.977 63.4728 58.8166 -29.6461 8.77733 -163.25 -6.8165 -3.18055e-015 4.89507e-015 -7.27728 9.49089 -10.1857 90 1.62444e-015 4.47265e-016 -45.962 -36.2467 161.996 -31.0999 -3.18056e-015 4.77083e-015 5.99205 8.24766 -9.36704 90 -3.18055e-015 3.18055e-015 
108.134 88.8846 68.2186 -163.603 -69.2119 107.611 4.08848 0.757632 1.6352 8.15491 1.6301 3.21281 8.15491 1.6301 3.2128 -8.31702e-012 -9.0191e-006 -5.27751e-005 -10.6411 -42.5783 17.3876 177.789 6.44011 -71.0088 -9.55126 -6.44874 60.4717 -63.9231 3.18055e-015 -3.18055e-015 -64.1885 -35.3308 -72.9795 178.382 -6.52178 76.0365 -8.08415 27.606 -77.4211 -32.741 2.38542e-015 -1.98785e-016 -44.5633 65.5547 62.7869 -30.4157 6.87633 -160.464 -14.9986 7.95139e-016 -1.73937e-015 -4.82952 5.98257 -8.19162 90 -1.49089e-015 1.49088e-016 -43.4619 -31.5017 166.124 -35.0233 0 -0 8.90831 9.95671 -11.4676 90 -4.77083e-015 6.36111e-015 
